# xmcd CD database file
#
# Track frame offsets:
#	150
#	33202
#	51186
#	65584
#	80933
#	98856
#	115670
#	129379
#	153136
#	171896
#	189103
#	202417
#	228941
#	231054
#	233150
#	235275
#	237369
#	239503
#	241622
#	243751
#	245841
#	247900
#	257117
#	261533
#	264949
#
# Disc length: 3583 seconds
#
# Revision: 2
# Processed by: cddbd v1.5.1PL2 Copyright (c) Steve Scherf et al.
# Submitted via: cdripper 1,0,32,406
#
DISCID=520dfd19
DTITLE=Vittorio Matteucci and US Band - Heart of Rythm'n'Blues
DYEAR=2003
DGENRE=Jazz
TTITLE0=I.Hayes/D.Porter - J.Brown - Soul Man - Hold On I'm Coming - Living in America
TTITLE1=S.Wonder - I Wish
TTITLE2=A.Franklin - Think
TTITLE3=J.Brown - Papa's Got a Brand New Bag
TTITLE4=G.Goffin/B.B.King/J.Wexler - A Natural Woman (You Make Me Feel Like)
TTITLE5=Prince - Kiss
TTITLE6=O.Redding - Respect
TTITLE7=M.Jagger/K.Richards - J.Brown/Wright - Satisfaction - I Got You
TTITLE8=S.Cropper/K.Floyd - Knock on Wood
TTITLE9=Lewis/Wright - When a Man Loves a Woman
TTITLE10=A.Williams/O.Hayes/V.Rice - Shake a Tail Feather
TTITLE11=V.Matteucci/M.Strano - So Sad
TTITLE12=tech. track - All Band
TTITLE13=tech. track - Guitar
TTITLE14=tech. track - Wind Section
TTITLE15=tech. track - Saxophone
TTITLE16=tech. track - Trumpet
TTITLE17=tech. track - Trombone
TTITLE18=tech. track - Drums
TTITLE19=tech. track - Bass
TTITLE20=tech. track - Keyboards
TTITLE21=tech. track - Drums Solo
TTITLE22=tech. track - Bass and Drums
TTITLE23=tech. track - Three Winds
TTITLE24=tech. track - Two Saxes
EXTD=YEAR: 2003
EXTT0=
EXTT1=
EXTT2=
EXTT3=
EXTT4=
EXTT5=
EXTT6=
EXTT7=
EXTT8=
EXTT9=
EXTT10=
EXTT11=
EXTT12=
EXTT13=
EXTT14=
EXTT15=
EXTT16=
EXTT17=
EXTT18=
EXTT19=
EXTT20=
EXTT21=
EXTT22=
EXTT23=
EXTT24=
PLAYORDER=
